<svg width="159" height="20" xmlns="http://www.w3.org/2000/svg"><g fill="none" fill-rule="evenodd"><path d="M0 4.515l3.554-1.282v1.794C4.419 3.862 5.61 3 7.457 3c2.922 0 5.704 2.283 5.704 6.5 0 4.17-2.735 6.452-5.704 6.452-1.893 0-3.062-.861-3.903-1.863l-.032 5.672H0V4.515zm9.608 4.938c0-2.074-1.403-3.448-3.063-3.448-1.66 0-3.038 1.374-3.038 3.494 0 2.074 1.379 3.449 3.038 3.449 1.66 0 3.063-1.351 3.063-3.495zM29 3.033h3.554v2.032c.724-1.724 1.893-2.146 3.997-2.053V6.06h-.187c-2.361 0-3.81 1.866-3.81 4.848v4.613H29V3.033zm10.496 9.157V6.273H38V3.244h1.496V1.286L43.05 0v3.244h2.945v3.03H43.05v5.334c0 .815.35 1.211 1.145 1.211.655 0 1.239-.163 1.753-.442v2.842c-.747.442-1.613.722-2.805.722-2.174 0-3.647-.862-3.647-3.75M48 3.233h3.554v1.77C52.372 3.955 53.448 3 55.247 3c1.637 0 2.876.722 3.53 1.98C59.876 3.7 61.185 3 62.891 3c2.642 0 4.231 1.584 4.231 4.59v8.13H63.57V8.754c0-1.677-.748-2.539-2.08-2.539-1.333 0-2.151.862-2.151 2.54v6.965h-3.553V8.754c0-1.677-.748-2.539-2.08-2.539-1.333 0-2.151.862-2.151 2.54v6.965H48V3.233zm34 0h3.554v1.77C86.372 3.955 87.424 3 89.224 3c2.688 0 4.254 1.77 4.254 4.637v8.083h-3.553V8.754c0-1.677-.794-2.539-2.15-2.539-1.356 0-2.221.862-2.221 2.54v6.965H82V3.233zM95 9.5c0-3.565 2.548-6.5 6.195-6.5 4.185 0 6.101 3.238 6.101 6.78 0 .279-.024.605-.047.931H98.53c.35 1.608 1.473 2.446 3.062 2.446 1.193 0 2.058-.373 3.039-1.281 0 0 .711 1.934 1.02 2.8-1.067.838-2.426 1.323-4.105 1.323C97.782 16 95 13.367 95 9.5zm8.837-1.002c-.21-1.584-1.146-2.656-2.642-2.656-1.473 0-2.432 1.048-2.712 2.656h5.354z" fill="#FE0605"/><path d="M113 9.5c0-3.565 2.736-6.5 6.57-6.5 1.747 0 2.996.486 4 1.267a281.32 281.32 0 00-1.102 3.02c-.772-.723-1.52-1.235-2.922-1.235-1.777 0-3.04 1.56-3.04 3.447 0 1.91 1.24 3.448 3.18 3.448 1.192 0 2.01-.512 2.876-1.328 0 0 .917 2.532 1.104 3.026-1.022.822-2.277 1.354-4.144 1.354C115.76 16 113 13.11 113 9.5m26-6.267h3.554v1.77C143.372 3.955 144.447 3 146.247 3c1.637 0 2.876.722 3.53 1.98C150.876 3.7 152.185 3 153.891 3c2.642 0 4.231 1.584 4.231 4.59v8.13h-3.553V8.754c0-1.677-.748-2.539-2.08-2.539-1.333 0-2.151.862-2.151 2.54v6.965h-3.553V8.754c0-1.677-.748-2.539-2.08-2.539-1.333 0-2.151.862-2.151 2.54v6.965H139V3.233zm-27.262 10.744c0 1.091-.836 1.976-1.869 1.976-1.032 0-1.869-.885-1.869-1.976 0-1.092.837-1.977 1.87-1.977 1.032 0 1.868.885 1.868 1.977" fill="#CDCDCD"/><path d="M20.603 16.16C16.962 16.16 14 13.208 14 9.58S16.962 3 20.603 3c3.64 0 6.602 2.952 6.602 6.58s-2.962 6.58-6.602 6.58m0-9.711A3.14 3.14 0 0017.46 9.58a3.14 3.14 0 003.142 3.131 3.14 3.14 0 003.141-3.131 3.14 3.14 0 00-3.141-3.131m54.001 9.711C70.962 16.16 68 13.208 68 9.58S70.962 3 74.603 3c3.64 0 6.602 2.952 6.602 6.58s-2.962 6.58-6.602 6.58m0-9.711A3.14 3.14 0 0071.46 9.58a3.14 3.14 0 003.142 3.131 3.14 3.14 0 003.141-3.131 3.14 3.14 0 00-3.141-3.131" fill="#FE0605"/><path d="M130.603 16.16c-3.641 0-6.603-2.952-6.603-6.58S126.962 3 130.603 3c3.64 0 6.602 2.952 6.602 6.58s-2.962 6.58-6.602 6.58m0-9.711a3.14 3.14 0 00-3.142 3.131 3.14 3.14 0 003.142 3.131 3.14 3.14 0 003.141-3.131 3.14 3.14 0 00-3.141-3.131" fill="#CDCDCD"/></g></svg>